# xmcd CD database file
#
# Track frame offsets:
#	150
#	18799
#	38393
#	59503
#	79143
#	99900
#	120112
#	129710
#	149771
#	166948
#	183391
#	199413
#
# Disc length: 2965 seconds
#
# Revision: 1
# Processed by: cddbd v1.4PL0 Copyright (c) Steve Scherf et al.
# Submitted via: CDex 1.50
#
DISCID=9a0b930c
DTITLE=STEVE HILL - DOMINO
DYEAR=2002
DGENRE=Rock
TTITLE0=Bad Boy (featuring Heavy T)
TTITLE1=Run
TTITLE2=Home
TTITLE3=No can do
TTITLE4=One woman man
TTITLE5=Faster
TTITLE6=The fall of the one and only John Doe
TTITLE7=Les eaux troubles
TTITLE8=Chasin' the hidden dragon
TTITLE9=Open your eyes
TTITLE10=Irréparables erreurs
TTITLE11=Just have to ask
EXTD=YEAR: 2002
EXTT0=
EXTT1=
EXTT2=
EXTT3=
EXTT4=
EXTT5=
EXTT6=
EXTT7=
EXTT8=
EXTT9=
EXTT10=
EXTT11=
PLAYORDER=
